<svg width="262" height="64" fill="none" xmlns="http://www.w3.org/2000/svg"><path fill-rule="evenodd" clip-rule="evenodd" d="M261.091.977h-9.583v4.034S249.119 0 240.162 0c-9.722 0-15.777 8.585-15.777 18.007 0 9.995 5.278 17.895 16.096 17.895 8.125 0 10.68-4.327 10.68-4.327l.083 3.867c-.319 5.15-2.986 7.914-8.096 7.914-3.778 0-6.153-1.228-6.68-4.187l-10.569.586c.375 7.329 8.666 11.67 16.207 11.67 16.971-.028 18.985-9.06 18.985-16.402V.977zm-18.832 26.969c-5.152 0-8.458-5.04-8.166-10.079.264-4.69 2.777-9.561 8.555-9.561 5.777 0 8.985 4.816 8.596 10.399-.305 4.537-2.874 9.24-8.985 9.24zM111.811 40.453c-8.389 0-16.985-4.592-16.985-13.275h8.999c.07 4.397 4.153 6.156 8.069 6.156 1.68 0 6.652-1.103 6.652-4.453 0-3.232-2.52-3.67-10.514-5.063l-.902-.158c-5.749-1.005-11.304-3.782-11.304-10.232 0-9.1 7.652-12.493 15.554-12.493s15.124 3.42 15.888 12.424h-8.875c0-3.937-3.61-5.458-7.18-5.458-3.166 0-6.36 1.089-6.36 4.062 0 2.695 3.689 3.291 7.886 3.97 1.522.246 3.109.502 4.613.874 6.444 1.577 10.957 4.09 10.957 10.888 0 9.631-9.749 12.758-16.498 12.758zm18.054-1.843h9.972V17.673c0-6.323 4.333-7.789 6.235-7.789 5.43 0 5.861 4.453 5.861 8.487v20.24h9.971V17.673c0-6.337 3.597-7.915 6.167-7.915 5.735 0 5.93 4.51 5.93 8.627v20.227h9.971V14.35c0-9.492-5.361-13.108-12.86-13.108a12.694 12.694 0 00-10.624 6.1c-1.903-4.397-5.861-6.1-10.277-6.1a12.594 12.594 0 00-10.763 5.947h-.139v-4.97h-9.444v36.392zm92.451-15.983c.75-10.901-5.402-22.334-18.526-22.334-11.5 0-18.318 9.408-18.318 19.668s7.041 19.39 18.679 19.39c8.332 0 14.804-3.435 17.665-12.09l-10.277-.46c-.264 1.396-2.958 4.523-7.194 4.523a8.433 8.433 0 01-6.208-2.462 8.524 8.524 0 01-2.5-6.22l26.679-.015zm-26.387-7.119c.346-4.159 3.806-7.357 7.958-7.357s7.612 3.198 7.958 7.357h-15.916zM11.86 50.588c5.709 0 10.476-4.055 11.606-9.455 1.14 5.391 5.897 9.44 11.601 9.454 5.753 0 10.55-4.117 11.632-9.581 1.085 5.462 5.876 9.582 11.63 9.595 6.535-.03 11.814-5.37 11.804-11.94-.01-5.824-4.173-10.669-9.673-11.7 4.688-.877 8.402-4.526 9.405-9.186a11.966 11.966 0 003.19 5.884 11.857 11.857 0 008.397 3.519c6.543 0 11.85-5.326 11.86-11.902.01-6.577-5.28-11.92-11.823-11.94-5.691-.018-10.46 3.997-11.625 9.371-1.156-5.363-5.902-9.38-11.582-9.385-5.708-.004-10.48 4.046-11.614 9.447-1.135-5.375-5.876-9.415-11.564-9.433-6.543-.02-11.867 5.289-11.897 11.865a11.98 11.98 0 003.462 8.457 11.868 11.868 0 006.155 3.3c-4.675.9-8.378 4.558-9.36 9.23-1.133-5.384-5.882-9.43-11.576-9.443C5.343 26.73.023 32.046 0 38.625c-.008 6.593 5.3 11.947 11.86 11.962zm38.07-26.943a11.97 11.97 0 01-3.227-6.068c-.93 4.74-4.655 8.469-9.375 9.385 4.67.906 8.364 4.566 9.343 9.23.993-4.7 4.741-8.374 9.461-9.239a11.87 11.87 0 01-6.201-3.308z" fill="#333"/><path fill-rule="evenodd" clip-rule="evenodd" d="M118.472 51.202a3.289 3.289 0 00-2.792 1.39l-.016-1.125h-2.338V63.78h2.47v-4.378a3.238 3.238 0 002.774 1.358c2.355 0 3.911-1.796 3.911-4.718 0-2.921-1.58-4.841-4.009-4.841zm-.626 7.622c-1.342 0-2.165-1.035-2.165-2.797h.032c0-1.763.816-2.806 2.141-2.806 1.326 0 2.149 1.076 2.149 2.839s-.815 2.764-2.157 2.764zm-10.284 1.995c-2.775 0-4.602-1.904-4.602-4.76 0-2.854 1.893-4.857 4.512-4.857 2.618 0 4.446 2.011 4.446 5.197v.248h-6.447c0 1.565.823 2.417 2.108 2.417a1.805 1.805 0 001.828-1.324h2.379a4.12 4.12 0 01-4.224 3.078zm-.09-7.805a2.03 2.03 0 00-2.009 2.044h3.943c-.098-1.108-.691-2.044-1.934-2.044zm-27.213 1.39v6.15l2.371.016v-9.103h-2.807l-3.211 6.149v-6.15H74.24v9.088h2.808l3.211-6.15zm10.267 2.326v3.824l2.47.016v-9.103h-2.47v3.31h-3.474v-3.31h-2.47v9.087h2.47V56.73h3.474zm9.041-3.343v7.167h-2.47v-7.167h-2.964v-1.92h8.398v1.92h-2.964zm30.407 3.343v3.824l2.471.016v-9.103h-2.471v3.31H126.5v-3.31h-2.47v9.087h2.47V56.73h3.474zm4.018-.67c0 2.855 1.828 4.758 4.603 4.758a4.119 4.119 0 004.215-3.078h-2.371a1.804 1.804 0 01-1.828 1.324c-1.284 0-2.108-.852-2.108-2.416h6.456v-.249c0-3.186-1.828-5.197-4.447-5.197-2.618 0-4.52 2.003-4.52 4.858zm2.503-1.002a2.031 2.031 0 012.009-2.044h.009c1.235 0 1.827.935 1.926 2.044h-3.944zm12.227 5.496v-7.167h2.964v-1.92h-8.398v1.92h2.964v7.167h2.47zm8.292-3.683h-5.254v-2.235h5.254v2.235zm7.797-3.484v7.167l2.47.016v-9.103h-8.415v9.087h2.47v-7.167h3.475zm10.111 6.29c.009.3.067.596.173.877l2.486.016a6.226 6.226 0 01-.313-2.483v-3.922c0-2.541-2.116-2.963-3.927-2.963-2.594 0-4.026 1.034-4.166 3.062h2.322c.173-1.035.658-1.39 1.778-1.39s1.647.48 1.647 1.216c0 .737-.593.886-2.199 1.093-1.778.231-3.927.513-3.927 2.888 0 1.705 1.219 2.748 3.211 2.748a4.106 4.106 0 002.915-1.143zm-1.885-3.05l.123-.02a4.678 4.678 0 001.746-.44v.985a1.982 1.982 0 01-.637 1.521 1.96 1.96 0 01-1.562.507c-.848 0-1.358-.455-1.358-1.217 0-1.054.893-1.203 1.688-1.336zm8.554-4.035a3.289 3.289 0 012.792-1.39c2.429 0 4.009 1.92 4.009 4.841 0 2.922-1.556 4.718-3.911 4.718a3.238 3.238 0 01-2.774-1.358v4.378h-2.471V51.467h2.339l.016 1.125zm0 3.435c0 1.762.824 2.797 2.166 2.797s2.124-1.043 2.124-2.764c0-1.722-.823-2.839-2.149-2.839s-2.108 1.043-2.108 2.806h-.033zm12.672-2.64v7.167h-2.47v-7.167h-2.964v-1.92h8.39v1.92h-2.956zm10.07 3.343v3.824l2.47.016v-9.103h-2.47v3.31h-3.475v-3.31h-2.47v9.087h2.47V56.73h3.475zm3.977-.67c0 2.855 1.836 4.758 4.611 4.758a4.119 4.119 0 004.215-3.078h-2.371a1.804 1.804 0 01-1.828 1.324c-1.284 0-2.108-.852-2.108-2.416h6.455v-.249c0-3.186-1.827-5.197-4.446-5.197-2.618 0-4.528 2.003-4.528 4.858zm2.511-1.002a2.03 2.03 0 012.009-2.044h.008c.527.009 1.029.23 1.391.615.363.385.556.9.536 1.43h-3.944zm10.218-2.466a3.289 3.289 0 012.791-1.39c2.429 0 4.01 1.92 4.01 4.841 0 2.922-1.556 4.718-3.911 4.718a3.24 3.24 0 01-2.775-1.358v4.378h-2.47V51.467h2.339l.016 1.125zm0 3.435c0 1.762.824 2.797 2.166 2.797s2.132-1.043 2.132-2.764c0-1.722-.823-2.839-2.149-2.839-1.325 0-2.116 1.043-2.116 2.806h-.033z" fill="#000"/></svg>